<svg width="173" height="48" viewBox="0 0 173 48" fill="none" xmlns="http://www.w3.org/2000/svg">
<path fill-rule="evenodd" clip-rule="evenodd" d="M142.742 31.6416C146.144 31.6416 148.835 27.7194 148.835 22.8932V11.2285H151.567V22.8932C151.567 29.3087 147.633 34.4849 142.796 34.4849C137.96 34.4849 134.025 29.3087 134.025 22.8932V11.2285H136.758V22.8932C136.648 27.7923 139.34 31.7145 142.728 31.7145L142.742 31.6416ZM76.931 34.6594H74.1986V32.5744C72.4365 33.8907 70.3383 34.5982 68.1874 34.6011C63.1328 34.6372 58.7143 30.9694 57.5031 25.7319C56.2919 20.4943 58.6038 15.0536 63.0937 12.5756C67.5836 10.0975 73.0799 11.2286 76.3846 15.3107L74.3763 17.2208C71.8637 14.2228 67.7595 13.4395 64.4292 15.3224C61.0989 17.2053 59.4006 21.2691 60.3132 25.1716C61.2259 29.0742 64.5142 31.8097 68.283 31.8016C70.5805 31.8066 72.7658 30.7417 74.267 28.8854H66.8895V25.9692H76.9584L76.931 34.6594ZM30.7129 11.4169H27.9805V34.6296H38.9101V31.7134H30.7129V11.4169ZM47.4218 28.914C51.949 28.914 55.619 24.9971 55.619 20.1655C55.619 15.3338 51.949 11.417 47.4218 11.417C45.2478 11.417 43.1628 12.3387 41.6255 13.9794C40.0882 15.62 39.2246 17.8452 39.2246 20.1655C39.2246 24.9971 42.8946 28.914 47.4218 28.914ZM47.4238 25.9977C50.4419 25.9977 52.8886 23.3864 52.8886 20.1653C52.8886 16.9442 50.4419 14.333 47.4238 14.333C44.4057 14.333 41.959 16.9442 41.959 20.1653C41.974 23.375 44.4163 25.9685 47.4238 25.9685V25.9977ZM52.8886 34.6593V31.7432H41.959V34.6593H52.8886ZM95.1836 20.2238C95.1836 15.3921 91.5136 11.4753 86.9865 11.4753L87.0138 11.417C84.8255 11.4091 82.7252 12.3354 81.1804 13.9896C79.6356 15.6437 78.7747 17.8884 78.7893 20.2238C78.7893 25.0554 82.4593 28.9723 86.9865 28.9723C91.5136 28.9723 95.1836 25.0554 95.1836 20.2238ZM86.9863 26.0562C90.0044 26.0562 92.4511 23.445 92.4511 20.2239C92.4511 17.0028 90.0044 14.3916 86.9863 14.3916C83.9682 14.3916 81.5215 17.0028 81.5215 20.2239C81.5664 23.4222 84.0166 25.9851 87.0136 25.9688L86.9863 26.0562ZM92.4511 34.7179V31.8018H81.5215V34.7179H92.4511ZM98.0957 11.417H100.828V34.6005H98.0957V11.417ZM107.342 11.4174H104.609V34.6446H107.342V28.8123H107.765C110.888 29.1738 113.929 27.5996 115.596 24.7591C117.263 21.9186 117.263 18.3111 115.596 15.4706C113.929 12.6301 110.888 11.0559 107.765 11.4174C107.625 11.4015 107.483 11.4015 107.342 11.4174ZM107.344 14.3352V14.4032L107.33 14.4081L107.344 14.3352ZM107.344 14.4032C107.481 14.3547 107.623 14.3221 107.767 14.3061C109.874 14.0066 111.953 15.0384 113.096 16.9512C114.239 18.864 114.239 21.3107 113.096 23.2235C111.953 25.1363 109.874 26.1681 107.767 25.8686H107.344V14.4032ZM126.985 13.1337L127.03 13.0955L127.017 13.1684L126.985 13.1337ZM123.178 11.4916C124.607 11.4466 125.988 12.0427 126.985 13.1337L125.008 14.8015C124.296 14.0073 123.217 13.7254 122.242 14.0786C121.267 14.4319 120.571 15.3563 120.459 16.4491V16.6824C120.459 17.9655 121.292 18.8258 122.918 18.9424C129.175 19.3507 132.044 22.4856 132.044 26.6265V26.889C131.714 30.2359 129.586 33.0702 126.597 34.1429C123.608 35.2156 120.308 34.3297 118.15 31.8756L120.24 30.1551C121.225 31.2814 122.624 31.8892 124.066 31.8173C126.8 31.9711 129.162 29.7977 129.421 26.889V26.6848C129.421 22.7918 125.842 22.0773 122.741 21.7565C119.872 21.4649 117.809 19.5548 117.809 16.799V16.6824C118.019 13.7029 120.379 11.4211 123.178 11.4916ZM169.803 34.5567H172.536L172.508 11.417L163.492 24.0877L154.475 11.417V34.6005H157.207V20.1217L163.505 28.8702L169.803 20.1217V34.5567Z" fill="white"/>
<path fill-rule="evenodd" clip-rule="evenodd" d="M14.8642 7.93196C14.8642 3.55126 11.5368 0 7.43211 0C3.32747 0 0 3.55126 0 7.93196V31.9174L6.12056 36.5978V48H8.74366V36.5978L14.8642 31.9174V7.93196ZM12.2416 21.3461L8.74414 25.0788V21.5794L12.2416 17.8467V21.3461ZM6.17715 21.5794L2.67969 17.8467V21.3461L6.17715 25.0788V21.5794ZM12.2411 13.8817L7.43206 19.0141L2.62305 13.765V10.2656L7.43206 15.3981L12.2411 10.2656V13.8817ZM12.0773 6.60415C11.5062 4.36566 9.60594 2.80882 7.43218 2.79856V2.74023C5.24283 2.75761 3.33749 4.34253 2.78711 6.60415L7.43218 11.547L12.0773 6.60415ZM2.62305 30.503V25.2539L6.12051 28.9866V33.1567L2.62305 30.503ZM8.74414 28.9866V33.1713L12.2416 30.4884V25.2539L8.74414 28.9866Z" fill="#113DCD"/>
</svg>
